<?xml version="1.0" standalone="no"?>
<!DOCTYPE svg PUBLIC "-//W3C//DTD SVG 20010904//EN"
 "http://www.w3.org/TR/2001/REC-SVG-20010904/DTD/svg10.dtd">
<svg version="1.0" xmlns="http://www.w3.org/2000/svg"
 width="2504.000000pt" height="2475.000000pt" viewBox="0 0 2504.000000 2475.000000"
 preserveAspectRatio="xMidYMid meet">

<g transform="translate(0.000000,2475.000000) scale(0.100000,-0.100000)"
fill="#000000" stroke="none">
<path d="M13286 23502 c-2 -4 -37 -9 -78 -10 -40 -2 -122 -7 -183 -12 -60 -6
-145 -13 -187 -16 -43 -4 -78 -11 -78 -16 0 -5 -21 -9 -47 -7 -27 1 -55 -1
-63 -4 -8 -3 -67 -13 -130 -22 -63 -9 -124 -20 -135 -25 -23 -10 -231 -50
-257 -50 -10 0 -18 -4 -18 -8 0 -5 -26 -14 -57 -20 -135 -27 -168 -36 -173
-42 -3 -4 -48 -17 -100 -29 -52 -12 -99 -26 -105 -31 -5 -4 -37 -15 -70 -24
-33 -9 -69 -21 -80 -25 -25 -11 -66 -25 -125 -42 -25 -7 -49 -16 -55 -19 -5
-4 -44 -18 -85 -31 -41 -13 -77 -26 -80 -30 -3 -3 -30 -14 -60 -24 -30 -9 -68
-25 -85 -35 -16 -9 -51 -23 -77 -31 -27 -7 -48 -17 -48 -22 0 -4 -4 -5 -10 -2
-5 3 -10 2 -10 -2 0 -5 -17 -15 -37 -22 -41 -13 -83 -33 -288 -131 -190 -91
-302 -148 -470 -240 -44 -24 -90 -48 -102 -54 -13 -6 -23 -14 -23 -18 0 -5 -5
-8 -11 -8 -6 0 -34 -16 -63 -35 -29 -19 -56 -35 -59 -35 -4 0 -36 -18 -72 -40
-36 -22 -70 -40 -75 -40 -6 0 -10 -4 -10 -10 0 -5 -5 -10 -11 -10 -6 0 -34
-16 -63 -35 -29 -19 -57 -35 -61 -35 -4 0 -34 -18 -66 -40 -32 -22 -63 -40
-69 -40 -5 0 -10 -5 -10 -10 0 -6 -10 -14 -22 -19 -13 -5 -45 -24 -73 -43 -27
-19 -58 -37 -67 -41 -10 -3 -18 -11 -18 -17 0 -5 -5 -10 -11 -10 -6 0 -39 -19
-73 -43 -33 -24 -69 -46 -78 -50 -10 -3 -18 -11 -18 -17 0 -5 -5 -10 -11 -10
-6 0 -39 -19 -73 -43 -33 -24 -69 -46 -78 -50 -10 -3 -18 -11 -18 -17 0 -5 -6
-10 -12 -10 -7 0 -35 -18 -63 -40 -27 -22 -55 -40 -61 -40 -7 0 -19 -11 -28
-25 -9 -14 -22 -25 -28 -25 -6 0 -46 -27 -90 -60 -43 -33 -82 -60 -87 -60 -5
0 -16 -11 -25 -25 -9 -14 -21 -25 -27 -25 -6 0 -53 -35 -106 -77 -52 -43 -110
-88 -129 -101 -19 -12 -34 -27 -34 -32 0 -6 -6 -10 -13 -10 -7 0 -64 -43 -127
-95 -63 -52 -118 -95 -122 -95 -4 0 -54 -41 -110 -91 -57 -50 -108 -93 -115
-96 -7 -3 -34 -25 -60 -49 -91 -84 -108 -99 -125 -109 -31 -19 -291 -258 -480
-441 -48 -46 -91 -84 -95 -84 -10 0 -443 -434 -443 -444 0 -4 -33 -42 -74 -84
-183 -189 -456 -487 -456 -496 0 -4 -20 -26 -45 -49 -25 -24 -45 -47 -45 -52
0 -4 -35 -46 -77 -93 -43 -46 -108 -121 -146 -166 -37 -44 -78 -93 -92 -108
-14 -15 -25 -29 -25 -33 0 -3 -45 -59 -100 -125 -55 -65 -100 -122 -100 -126
0 -4 -9 -16 -21 -28 -30 -31 -189 -235 -189 -242 0 -4 -24 -37 -53 -73 -30
-36 -62 -79 -73 -96 -10 -16 -24 -34 -31 -38 -7 -4 -13 -13 -13 -18 0 -6 -29
-49 -65 -95 -36 -46 -65 -87 -65 -90 0 -4 -37 -57 -83 -118 -45 -61 -87 -118
-92 -128 -6 -9 -31 -46 -57 -82 -26 -36 -53 -76 -59 -88 -7 -13 -34 -53 -61
-89 -26 -37 -48 -70 -48 -74 0 -3 -18 -32 -40 -62 -22 -31 -40 -62 -40 -70 0
-7 -5 -13 -10 -13 -6 0 -14 -8 -17 -17 -4 -10 -26 -46 -50 -79 -24 -34 -43
-67 -43 -73 0 -6 -4 -11 -10 -11 -5 0 -10 -5 -10 -11 0 -7 -16 -34 -36 -61
-19 -27 -39 -60 -44 -74 -5 -13 -14 -24 -20 -24 -5 0 -10 -6 -10 -13 0 -7 -18
-39 -40 -72 -22 -33 -40 -64 -40 -68 0 -4 -16 -31 -35 -60 -19 -28 -35 -57
-35 -64 0 -7 -6 -16 -12 -20 -7 -4 -22 -24 -32 -43 -11 -19 -32 -60 -49 -90
-16 -30 -35 -62 -42 -70 -8 -8 -23 -35 -35 -60 -31 -66 -69 -133 -77 -139 -5
-3 -18 -26 -31 -51 -13 -25 -36 -67 -51 -95 -64 -115 -125 -230 -211 -405 -90
-181 -100 -202 -119 -237 -9 -18 -96 -202 -156 -328 -18 -38 -41 -90 -51 -115
-10 -25 -21 -47 -25 -50 -3 -3 -10 -16 -14 -29 -4 -13 -14 -40 -23 -60 -9 -20
-16 -38 -17 -41 -1 -5 -16 -39 -51 -115 -7 -16 -23 -57 -35 -90 -11 -33 -29
-78 -40 -100 -10 -22 -24 -61 -31 -87 -6 -27 -15 -48 -19 -48 -4 0 -17 -33
-29 -72 -12 -40 -26 -77 -30 -83 -4 -5 -16 -39 -25 -75 -10 -36 -23 -74 -30
-85 -6 -11 -20 -51 -30 -90 -10 -38 -21 -74 -26 -80 -4 -5 -17 -48 -28 -95
-12 -47 -25 -92 -30 -101 -5 -9 -19 -63 -31 -120 -13 -57 -26 -108 -30 -114
-4 -5 -18 -64 -31 -130 -13 -66 -26 -122 -30 -125 -3 -3 -14 -59 -24 -125 -10
-66 -22 -125 -27 -132 -5 -6 -8 -20 -7 -30 1 -10 -1 -25 -4 -33 -3 -8 -13 -85
-22 -170 -9 -85 -20 -164 -25 -175 -10 -22 -26 -269 -36 -545 -7 -184 19 -706
36 -738 4 -9 16 -84 26 -165 9 -81 20 -150 25 -152 4 -3 5 -14 2 -26 -3 -12
-2 -24 4 -28 5 -3 17 -53 27 -111 10 -58 21 -107 25 -110 4 -3 18 -54 31 -115
13 -60 26 -112 30 -115 4 -3 17 -43 29 -90 12 -46 26 -87 30 -90 4 -3 15 -34
25 -70 10 -36 24 -76 31 -90 7 -14 18 -38 24 -55 6 -16 16 -43 22 -60 7 -16
13 -32 14 -35 1 -3 9 -23 19 -45 88 -194 219 -459 266 -537 22 -37 40 -70 40
-74 0 -4 16 -31 35 -60 19 -29 35 -57 35 -63 0 -6 5 -11 10 -11 6 0 10 -5 10
-11 0 -6 19 -39 43 -73 24 -33 46 -69 50 -79 3 -9 11 -17 17 -17 5 0 10 -5 10
-11 0 -6 20 -39 45 -73 25 -35 45 -68 45 -74 0 -6 9 -16 20 -22 11 -6 20 -16
20 -23 0 -7 29 -48 65 -92 36 -44 65 -84 65 -89 0 -4 9 -18 20 -30 10 -11 58
-68 105 -126 47 -58 97 -118 112 -135 16 -16 30 -35 33 -42 10 -23 339 -373
520 -552 102 -101 266 -257 365 -347 99 -91 196 -180 216 -199 20 -19 40 -35
43 -35 4 0 53 -41 110 -90 57 -49 107 -90 113 -90 5 0 19 -14 31 -30 13 -17
29 -30 37 -30 8 0 20 -9 27 -20 7 -11 16 -20 21 -20 4 0 43 -29 86 -65 43 -36
84 -65 90 -65 5 0 15 -9 21 -20 6 -11 15 -20 20 -20 5 0 49 -31 97 -70 48 -38
93 -70 100 -70 7 0 17 -9 23 -20 6 -11 15 -20 21 -20 6 0 46 -27 88 -60 43
-33 83 -60 89 -60 7 0 17 -9 24 -20 7 -11 17 -20 22 -20 5 0 40 -23 78 -50 38
-28 72 -50 77 -50 5 0 11 -7 15 -15 3 -8 10 -15 16 -15 12 0 131 -79 142 -95
5 -7 8 -7 8 0 0 6 3 6 8 0 4 -6 41 -32 82 -57 41 -26 83 -54 93 -62 9 -9 21
-16 25 -16 5 0 31 -16 58 -35 27 -19 53 -35 57 -35 5 0 41 -22 81 -50 40 -27
76 -50 80 -50 4 0 31 -16 60 -35 29 -19 56 -35 59 -35 4 0 30 -15 59 -34 29
-18 63 -36 76 -40 12 -4 22 -11 22 -17 0 -5 15 -16 33 -24 17 -8 59 -31 92
-50 33 -18 80 -45 105 -58 25 -13 69 -38 98 -55 29 -18 57 -32 62 -32 4 0 10
-3 12 -7 3 -8 50 -34 133 -76 22 -11 48 -27 58 -35 9 -8 17 -12 17 -7 0 4 7 2
15 -5 8 -6 60 -35 117 -64 57 -29 139 -71 183 -93 44 -23 139 -69 210 -104 72
-34 137 -68 145 -75 8 -7 19 -13 23 -12 4 0 70 -30 145 -67 239 -115 256 -123
305 -141 26 -9 47 -20 47 -24 0 -4 12 -11 27 -15 15 -3 43 -14 62 -22 20 -9
38 -17 41 -18 17 -6 111 -48 140 -64 19 -9 54 -24 78 -31 23 -7 42 -17 42 -22
0 -4 7 -8 15 -8 15 0 51 -14 140 -55 49 -23 105 -47 115 -50 7 -2 60 -25 100
-43 19 -9 40 -17 45 -17 6 -1 19 -6 30 -12 11 -6 38 -16 60 -23 22 -7 45 -16
50 -20 6 -5 39 -18 75 -30 36 -11 74 -26 84 -32 11 -5 44 -19 74 -29 30 -10
60 -23 66 -28 6 -4 37 -16 69 -26 31 -10 57 -22 57 -27 0 -5 4 -7 9 -4 5 3 22
-1 37 -9 16 -8 35 -15 42 -15 7 0 31 -9 55 -19 23 -11 71 -29 107 -41 36 -12
79 -27 95 -35 17 -7 57 -21 90 -30 33 -10 65 -21 70 -25 6 -4 46 -18 90 -30
44 -12 85 -26 91 -31 6 -5 36 -16 65 -25 30 -8 61 -18 69 -21 8 -4 17 -7 20
-8 3 -1 12 -4 20 -8 8 -3 40 -13 70 -22 30 -9 69 -23 86 -31 17 -7 62 -21 100
-30 38 -8 73 -19 79 -24 5 -4 46 -18 89 -30 44 -12 87 -26 95 -30 22 -11 166
-50 185 -50 9 0 16 -4 16 -9 0 -5 36 -17 80 -27 44 -10 80 -22 80 -26 0 -5 5
-6 10 -3 6 4 16 2 23 -3 7 -5 46 -17 87 -26 41 -10 79 -21 85 -25 5 -5 55 -19
110 -32 55 -12 102 -25 105 -29 3 -3 50 -16 105 -29 55 -13 107 -28 115 -32 8
-4 60 -18 115 -30 55 -12 105 -25 110 -29 6 -4 48 -15 95 -24 47 -10 92 -20
100 -24 8 -3 20 -7 25 -7 6 -1 17 -5 25 -8 8 -3 51 -13 95 -22 44 -9 89 -20
100 -25 11 -5 74 -19 140 -31 66 -13 122 -25 125 -29 3 -3 61 -16 130 -29 69
-13 132 -28 140 -32 13 -7 100 -24 225 -45 22 -4 45 -10 50 -14 6 -4 57 -15
115 -24 58 -10 114 -22 126 -27 11 -6 27 -10 35 -8 8 1 21 0 29 -3 20 -8 112
-25 175 -33 28 -4 55 -10 60 -15 6 -4 80 -17 165 -29 85 -13 164 -26 175 -31
11 -5 92 -19 180 -30 88 -12 169 -26 180 -30 11 -5 101 -19 200 -30 99 -12
189 -26 200 -30 11 -5 90 -16 175 -25 85 -9 163 -21 173 -26 11 -6 35 -9 55
-8 21 1 44 -1 52 -4 8 -3 98 -13 200 -22 102 -9 194 -21 205 -25 21 -9 534
-50 622 -50 28 0 53 -4 55 -9 12 -32 1458 -50 1843 -22 105 7 195 17 200 21 6
4 48 11 95 14 131 11 321 36 339 46 9 5 66 16 126 25 61 9 117 19 125 22 8 3
20 7 25 8 6 0 17 4 25 7 8 3 56 14 105 23 50 9 95 21 100 25 6 5 53 18 105 30
52 12 100 26 105 30 6 4 44 18 85 30 41 12 77 25 80 29 3 4 25 13 50 20 25 7
63 21 85 31 22 10 63 26 90 36 28 10 53 22 56 27 3 5 9 8 13 8 10 -1 101 43
104 52 2 4 9 7 15 7 12 0 97 40 107 50 3 3 27 16 55 30 27 14 56 31 63 38 7 6
18 12 23 12 11 0 125 71 150 92 8 8 22 17 30 20 8 4 42 29 76 57 34 27 81 62
105 77 47 29 464 441 456 450 -3 3 3 15 13 27 50 59 129 163 141 186 7 14 19
30 25 34 7 4 13 13 13 18 0 6 16 34 35 63 19 29 35 56 35 60 0 4 16 30 35 59
19 28 35 57 35 64 0 7 4 13 9 13 11 0 111 203 111 224 0 9 3 16 8 16 4 0 15
21 25 48 10 26 30 70 43 97 13 28 24 55 24 60 0 6 8 26 18 45 10 19 27 64 36
100 10 36 22 70 26 75 4 6 17 46 29 90 12 44 26 87 31 97 5 9 18 58 30 110 11
51 25 101 30 110 5 9 19 72 32 140 12 68 25 125 28 128 8 6 40 207 40 249 0
17 5 31 11 31 6 0 10 16 8 38 -1 20 1 44 4 52 8 19 37 340 37 401 0 25 4 49 9
54 22 22 34 653 21 1089 -6 232 -16 425 -21 431 -5 5 -9 36 -9 70 0 89 -30
588 -37 605 -3 8 -5 40 -4 72 2 31 -2 64 -8 75 -5 10 -17 113 -26 228 -9 116
-20 219 -25 230 -5 11 -18 124 -30 250 -11 127 -25 239 -30 250 -5 11 -18 103
-30 205 -11 102 -25 194 -29 205 -5 11 -19 103 -31 205 -12 102 -26 187 -30
190 -4 3 -15 68 -25 145 -10 77 -20 145 -23 150 -4 6 -5 20 -3 33 1 12 -2 22
-7 22 -5 0 -17 57 -27 128 -10 70 -21 132 -25 137 -4 6 -17 75 -30 155 -13 80
-26 147 -30 150 -3 3 -17 68 -30 145 -13 77 -26 142 -30 145 -4 3 -17 60 -29
128 -11 67 -25 130 -30 140 -5 9 -17 55 -26 102 -9 47 -19 92 -22 100 -3 8 -5
25 -4 38 1 12 -2 22 -7 22 -5 0 -17 41 -26 92 -10 51 -21 97 -26 103 -5 6 -18
58 -29 114 -11 57 -24 108 -30 115 -5 6 -12 27 -16 46 -15 78 -37 166 -45 185
-5 11 -19 63 -31 115 -12 52 -25 97 -28 100 -4 3 -16 43 -26 90 -10 47 -23 91
-28 98 -5 6 -6 12 -2 12 4 0 3 6 -2 13 -5 6 -18 48 -29 92 -10 44 -21 82 -25
85 -6 5 -33 99 -46 160 -3 14 -9 30 -13 35 -4 6 -18 48 -30 95 -12 46 -25 89
-30 95 -5 6 -13 29 -19 50 -5 22 -15 60 -21 85 -6 24 -15 49 -19 55 -4 5 -16
39 -26 75 -9 36 -22 71 -27 78 -6 6 -7 12 -3 12 4 0 3 6 -2 13 -6 6 -16 35
-22 62 -7 28 -18 64 -26 80 -7 17 -21 57 -30 90 -9 33 -25 78 -34 100 -10 22
-26 67 -36 100 -10 33 -21 65 -25 70 -4 6 -17 42 -29 82 -12 40 -31 90 -42
112 -10 22 -19 46 -19 53 0 7 -8 29 -18 48 -10 19 -27 62 -37 95 -10 33 -21
65 -25 70 -4 6 -17 41 -29 79 -12 38 -25 74 -30 80 -5 6 -16 36 -26 66 -10 30
-24 66 -31 80 -7 14 -22 54 -34 90 -12 36 -25 70 -30 75 -4 6 -13 28 -20 50
-7 22 -19 50 -27 63 -7 12 -11 27 -8 32 3 6 2 10 -3 10 -6 0 -13 12 -17 28 -3
15 -20 55 -36 90 -16 34 -29 68 -29 75 0 6 -8 26 -18 42 -11 17 -29 60 -41 98
-13 37 -26 67 -29 67 -4 0 -13 19 -20 42 -14 45 -47 120 -91 208 -15 30 -33
74 -41 98 -7 23 -17 42 -21 42 -4 0 -17 29 -29 64 -12 36 -24 66 -28 68 -10 4
-42 76 -42 94 0 8 -7 17 -15 20 -8 4 -15 13 -15 22 0 9 -18 52 -39 97 -21 44
-61 127 -88 184 -78 168 -409 823 -480 949 -17 31 -40 73 -50 92 -10 19 -22
38 -28 42 -5 4 -7 8 -2 8 4 0 -4 18 -18 40 -14 22 -25 44 -25 50 0 5 -4 10 -9
10 -5 0 -13 10 -17 22 -3 12 -20 44 -37 71 -32 52 -60 103 -96 172 -12 22 -34
60 -51 85 -16 25 -41 67 -55 94 -14 26 -34 60 -45 73 -11 14 -20 30 -20 35 0
5 -17 35 -39 66 -45 67 -118 185 -138 225 -8 15 -18 27 -23 27 -5 0 -12 10
-16 23 -7 23 -40 77 -135 220 -33 48 -59 90 -59 92 0 3 -19 32 -42 66 -24 33
-52 75 -63 93 -11 18 -35 54 -52 79 -18 25 -33 50 -33 56 0 6 -4 11 -9 11 -5
0 -16 13 -24 29 -8 16 -40 63 -71 104 -31 41 -56 78 -56 82 0 3 -27 42 -60 84
-33 43 -60 83 -60 89 0 6 -9 16 -20 22 -11 6 -20 16 -20 21 0 6 -29 49 -65 94
-36 46 -65 88 -65 94 0 6 -9 15 -20 21 -11 6 -20 16 -20 21 0 6 -31 51 -70 99
-38 48 -70 93 -70 99 0 5 -9 15 -20 21 -11 6 -20 15 -20 21 0 6 -31 48 -70 93
-38 46 -70 87 -70 91 0 4 -11 16 -25 27 -14 11 -25 26 -25 33 0 8 -9 19 -20
25 -11 6 -20 15 -20 21 0 9 -45 63 -220 269 -16 19 -50 57 -75 84 -25 27 -45
52 -45 56 0 13 -489 508 -589 596 -53 47 -109 98 -126 115 -16 16 -34 29 -39
29 -4 0 -18 9 -30 20 -59 54 -182 150 -192 150 -7 0 -14 7 -18 15 -3 8 -16 19
-28 25 -13 5 -59 38 -103 74 -44 36 -85 66 -91 66 -7 0 -14 7 -18 15 -3 8 -10
15 -16 15 -6 0 -47 27 -90 59 -43 33 -89 65 -102 72 -12 7 -53 34 -89 61 -37
26 -72 48 -78 48 -6 0 -16 9 -23 20 -7 11 -17 20 -23 20 -6 0 -34 16 -64 35
-29 19 -55 35 -57 35 -2 0 -27 14 -55 32 -51 31 -101 59 -169 95 -19 10 -37
20 -40 23 -3 3 -30 16 -60 30 -30 14 -56 28 -58 33 -2 4 -10 7 -18 7 -8 0 -22
4 -32 9 -22 13 -201 93 -212 95 -3 1 -14 7 -25 12 -11 6 -41 17 -67 25 -27 7
-48 18 -48 23 0 5 -3 6 -7 3 -3 -4 -11 -3 -17 2 -6 5 -38 16 -71 26 -33 9 -64
20 -70 25 -5 4 -50 18 -100 30 -49 13 -92 26 -95 30 -3 3 -54 17 -115 30 -60
13 -112 27 -115 31 -3 3 -57 14 -120 24 -63 9 -122 19 -130 22 -8 3 -28 5 -43
4 -15 -2 -33 2 -40 7 -14 11 -176 29 -344 38 -68 4 -123 11 -123 16 0 10 -567
11 -574 0z"/>
</g>
</svg>
