<?xml version="1.0" standalone="no"?>
<!DOCTYPE svg PUBLIC "-//W3C//DTD SVG 20010904//EN"
 "http://www.w3.org/TR/2001/REC-SVG-20010904/DTD/svg10.dtd">
<svg version="1.0" xmlns="http://www.w3.org/2000/svg"
 width="2072.000000pt" height="2048.000000pt" viewBox="0 0 2072.000000 2048.000000"
 preserveAspectRatio="xMidYMid meet">

<g transform="translate(0.000000,2048.000000) scale(0.100000,-0.100000)"
fill="#000000" stroke="none">
<path d="M10870 19438 c-798 -61 -1614 -313 -2425 -746 -130 -69 -199 -109
-490 -281 -143 -84 -629 -404 -769 -506 -60 -44 -172 -129 -250 -189 -77 -60
-170 -132 -206 -159 -601 -465 -1207 -1037 -1760 -1662 -73 -82 -160 -181
-194 -220 -94 -105 -366 -441 -492 -605 -642 -840 -1234 -1799 -1631 -2645
-118 -251 -145 -311 -208 -460 -264 -632 -417 -1182 -489 -1755 -38 -302 -51
-592 -37 -818 40 -626 161 -1097 420 -1637 407 -846 1189 -1721 2256 -2522
1070 -803 2503 -1552 4045 -2113 1783 -648 3813 -1092 5605 -1225 459 -34
1031 -44 1395 -24 656 36 1266 178 1711 399 326 162 519 300 749 536 400 410
669 962 820 1684 140 670 151 1555 34 2740 -140 1420 -427 2828 -850 4165
-280 883 -613 1746 -952 2465 -22 47 -76 164 -121 260 -94 201 -305 614 -429
840 -458 836 -979 1624 -1524 2306 -232 289 -384 461 -618 695 -310 310 -528
486 -1015 816 -462 313 -1016 537 -1535 619 -322 51 -722 67 -1040 42z m-2109
-4057 c690 -141 1139 -672 1314 -1556 73 -370 96 -626 95 -1095 0 -190 -2
-358 -4 -375 -3 -16 -7 -86 -11 -155 -3 -69 -19 -323 -35 -565 -39 -578 -48
-777 -43 -970 9 -398 82 -529 239 -428 57 37 214 193 309 308 37 44 145 184
240 310 95 127 199 264 231 305 418 544 784 887 1129 1058 481 240 971 151
1305 -236 187 -217 310 -525 384 -963 24 -137 68 -549 81 -744 43 -660 94
-995 197 -1295 154 -447 428 -742 783 -841 237 -66 563 -66 845 0 209 49 471
159 641 269 175 113 287 151 444 152 100 0 176 -19 280 -69 176 -86 304 -235
369 -431 83 -253 14 -529 -180 -724 -153 -152 -598 -385 -967 -505 -399 -130
-686 -176 -1082 -175 -407 1 -671 48 -1032 185 -711 269 -1237 879 -1507 1749
-117 378 -183 789 -226 1410 -18 256 -43 426 -73 485 -20 41 -60 75 -89 75
-87 0 -231 -131 -424 -385 -66 -88 -197 -261 -290 -385 -373 -494 -596 -752
-829 -960 -318 -283 -554 -417 -837 -474 -89 -18 -304 -21 -394 -5 -534 94
-864 595 -968 1469 -59 489 -52 1008 29 2165 24 335 32 529 32 765 1 523 -66
912 -183 1066 -66 86 -176 101 -300 39 -512 -253 -1297 -1542 -1984 -3260
-222 -554 -429 -1140 -561 -1585 -140 -475 -152 -505 -256 -645 -130 -175
-338 -296 -565 -331 -179 -27 -330 -3 -503 81 -219 106 -372 292 -436 530 -26
95 -31 304 -10 400 14 64 119 415 171 575 362 1095 1045 2558 1648 3530 413
664 763 1121 1154 1506 183 181 319 294 488 406 238 159 533 284 760 322 52 9
106 18 120 20 14 3 111 3 215 1 137 -3 217 -9 286 -24z"/>
</g>
</svg>
